<?xml version="1.0" encoding="utf-8"?>
<!-- Generator: Adobe Illustrator 22.0.1, SVG Export Plug-In . SVG Version: 6.00 Build 0)  -->
<svg version="1.1" id="Layer_1" xmlns="http://www.w3.org/2000/svg" xmlns:xlink="http://www.w3.org/1999/xlink" x="0px" y="0px"
	 viewBox="0 0 25 25" style="enable-background:new 0 0 25 25;" xml:space="preserve">
<path d="M16,12.5L23.5,5c1-1,1-2.6,0-3.5c-1-1-2.6-1-3.5,0L12.5,9L5,1.5c-1-1-2.6-1-3.5,0c-1,1-1,2.6,0,3.5L9,12.5L1.5,20
	c-1,1-1,2.6,0,3.5C2,24,2.6,24.3,3.3,24.3S4.5,24,5,23.5l7.5-7.5l7.5,7.5c0.5,0.5,1.1,0.7,1.8,0.7s1.3-0.2,1.8-0.7c1-1,1-2.6,0-3.5
	L16,12.5z"/>
</svg>
